# xmcd
#
# Track frame offsets:
#	150
#	10954
#	24534
#	37459
#	55437
#	76497
#	97467
#	111460
#	124526
#	140660
#	154414
#	173405
#
# Disc length: 2501 seconds
#
# Revision: 0
# Processed by: cddbd v1.5.2PL0 Copyright (c) Steve Scherf et al.
# Submitted via: EasyCDDAExtractor 11.0.3.1
#
DISCID=ae09c30c
DTITLE=Frank Sinatra - My way
DYEAR=1990
DGENRE=Showtunes
TTITLE0=Watch what happens
TTITLE1=Didn´t we
TTITLE2=Halleluja I love her so
TTITLE3=Yesterday
TTITLE4=All my tomorrows
TTITLE5=My way
TTITLE6=A day in the life of a fool
TTITLE7=For once in my life 
TTITLE8=If you go away
TTITLE9=Mrs. Robinson
TTITLE10=Live-Special - For once in my life 
TTITLE11=Live-Special - My way
EXTD=
EXTT0=
EXTT1=
EXTT2=
EXTT3=
EXTT4=
EXTT5=
EXTT6=
EXTT7=
EXTT8=
EXTT9=
EXTT10=
EXTT11=
PLAYORDER=
